<?xml version="1.0" encoding="utf-8"?>
<!-- Generator: Adobe Illustrator 17.0.0, SVG Export Plug-In . SVG Version: 6.00 Build 0)  -->
<!DOCTYPE svg PUBLIC "-//W3C//DTD SVG 1.1//EN" "http://www.w3.org/Graphics/SVG/1.1/DTD/svg11.dtd">
<svg version="1.1" id="Layer_1" xmlns="http://www.w3.org/2000/svg" xmlns:xlink="http://www.w3.org/1999/xlink" x="0px" y="0px"
	 width="120px" height="45px" viewBox="0 0 120 45" enable-background="new 0 0 120 45" xml:space="preserve">
<path id="IOM_logo_FR" fill="#0033A0" d="M85.1,0.7H81v28.9h4.1V0.7z M31.9,40.5c0,0.9-0.1,1.5-0.3,1.8c-0.2,0.4-0.9,1.2-2.5,1.2
	c-1.1,0-1.8-0.4-2.2-0.8c-0.5-0.5-0.6-1-0.6-2.3v-5.5H25v5.5c0,0.6,0,1.8,0.5,2.6c0.7,1.2,2.3,1.7,3.6,1.7c1.1,0,2.2-0.3,3-1
	c1.1-0.9,1.1-2.3,1.1-3.2V35h-1.3C31.9,34.9,31.9,40.5,31.9,40.5z M6.1,34.9c-3.3,0-5.2,2.4-5.2,5C1,42.6,3,44.8,6,44.8
	c3.1,0,5.3-2.2,5.3-5C11.3,37.3,9.4,34.9,6.1,34.9z M8.9,42.4c-0.6,0.7-1.8,1.1-2.8,1.1c-2.1,0-3.7-1.5-3.7-3.6c0-1.7,1-3.6,3.8-3.6
	c2.5,0,3.7,2.1,3.7,3.6C9.9,40.7,9.6,41.8,8.9,42.4z M21,42.6l-6.5-7.5h-1.1v9.6h1.3v-7.5l6.4,7.5h1.1v-9.6h-1.3v7.5H21z M94.3,44.8
	h1.3v-9.6h-1.3V44.8z M84.1,36.3h3.3v8.4h1.3v-8.4H92V35h-8v1.2h0.1V36.3z M79.3,35l-4.1,9.7h1.5l1.2-2.8H82l1.2,2.8h1.5L80.3,35
	H79.3z M78.2,40.6l1.5-3.5l1.6,3.5H78.2z M71.1,40.1c1-0.4,1.7-1.2,1.7-2.4c0-0.9-0.5-2-1.6-2.4C70.6,35,69.9,35,69.5,35h-2.4v9.6
	h1.3v-4.3h0.4c0.6,0,1.1,0,2.1,1.2c0.3,0.4,1.7,2.5,2,3h1.6c-0.6-0.9-0.9-1.2-1.3-2C72.4,41.7,71.9,40.7,71.1,40.1z M70.3,39.2
	c-0.4,0.1-1.1,0.1-1.3,0.1h-0.5v-3h0.4c0.8,0,1.2,0.1,1.7,0.2c0.4,0.2,0.7,0.7,0.7,1.2C71.3,38.4,71,38.9,70.3,39.2z M61,41.3h1.9v2
	c-0.9,0.3-1.3,0.4-2.1,0.4c-2.3,0-3.8-1.6-3.8-3.7c0-2.3,1.9-3.7,3.7-3.7c0.5,0,1.9,0.1,3.4,1v-1.5c-1-0.4-2.1-0.8-3.4-0.8
	c-3.3,0-5.2,2.5-5.2,5.1c0,2.2,1.6,4.9,5.3,4.9c1.7,0,2.8-0.5,3.5-0.8v-4H61V41.3z M21.7,12.4c0.3,0,0.6-0.3,0.6-0.6
	s-0.3-0.6-0.6-0.6c-0.3,0-0.6,0.3-0.6,0.6S21.4,12.4,21.7,12.4z M103.1,34.9c-3.3,0-5.2,2.4-5.2,5c0,2.7,2.1,4.9,5.1,4.9
	c3.1,0,5.3-2.2,5.3-5C108.3,37.3,106.3,34.9,103.1,34.9z M105.9,42.4c-0.6,0.7-1.8,1.1-2.8,1.1c-2.1,0-3.7-1.5-3.7-3.6
	c0-1.7,1.1-3.6,3.8-3.6c2.5,0,3.7,2.1,3.7,3.6C106.8,40.7,106.5,41.8,105.9,42.4z M117.6,42.6l-6.5-7.5H110v9.6h1.3v-7.5l6.4,7.5
	h1.1v-9.6h-1.3v7.5H117.6z M115.2,0.7l-9.6,11.8L96,0.6h-3.8v28.9h4.1V7l9,11.2h0.7L114.9,7v22.5h4.1V0.7H115.2z M16.1,12.4
	c0.3,0,0.6-0.3,0.6-0.6s-0.3-0.6-0.6-0.6c-0.3,0-0.6,0.3-0.6,0.6S15.8,12.4,16.1,12.4z M22.6,12.6h-1.8c-0.1,0-0.2,0.1-0.2,0.1
	l-1.1,2.7h-1.1l-1.1-2.7c0-0.1-0.1-0.1-0.2-0.1h-1.8c-0.1,0-0.2,0.1-0.2,0.1L14,15.5c0,0.1,0,0.2,0.1,0.3h0.1c0.1,0,0.2-0.1,0.2-0.1
	l1-2.5l0.1,2.4l-0.4,3c0,0.1,0,0.2,0.2,0.3h0.1c0.1,0,0.2-0.1,0.2-0.2l0.4-2.9h0.5l0.4,2.9c0,0.1,0.1,0.2,0.2,0.2h0.1
	c0.1,0,0.2-0.2,0.2-0.3l-0.4-3l0.1-2.4l1,2.5l0,0l0,0l0,0l0,0l0,0l0,0l0,0l0,0l0,0l0,0l0,0l0,0l0,0h0.2L18,17.5c0,0.1,0,0.2,0.1,0.3
	c0,0.1,0.1,0.1,0.2,0.1v0.7c0,0.1,0.1,0.2,0.2,0.2s0.2-0.1,0.2-0.2v-0.7l0,0l0,0h0.1H19l0,0l0,0l0,0v0.7c0,0.1,0.1,0.2,0.2,0.2
	s0.2-0.1,0.2-0.2v-0.5c0.1,0,0.1-0.1,0.2-0.1c0.1-0.1,0.1-0.2,0.1-0.3L19.4,16h0.2l0,0l0,0l0,0l0,0l0,0l0,0l0,0l0,0l0,0l0,0l0,0l0,0
	l0,0l1-2.6l0.2,1c0,0.2,0,0.3,0,0.5l-1,4.3h3.1l-1-4.3c0-0.2,0-0.3,0-0.5l0.2-1l0.8,2.1c0,0.1,0.1,0.2,0.2,0.2h0.1
	c0.1-0.1,0.2-0.2,0.1-0.3l-0.9-2.3C22.8,12.7,22.7,12.6,22.6,12.6z M18.9,15.3c0.2,0,0.4-0.2,0.4-0.4s-0.2-0.4-0.4-0.4
	c-0.2,0-0.4,0.2-0.4,0.4S18.7,15.3,18.9,15.3z M44.6,39.1l-3.2-3.9h-1.3v9.6h1.3v-7.5l3,3.7h0.2l3-3.7v7.5H49v-9.6h-1.2L44.6,39.1z
	 M28,0.7c0.8,0.7,1.9,2,1.9,2c2.9,3.3,4.7,7.7,4.7,11.7v0.1h-4.9C29,6.8,22.8,0.7,15.3,0.7C7.3,0.7,0.9,7.5,0.9,16
	c0,4.6,2.1,9.7,5.5,13.6h3c-0.8-0.7-1.9-2-1.9-2C4.6,24.4,2.8,20,2.8,16v-0.1h4.9c0.7,7.7,6.8,13.8,14.4,13.8
	c8,0,14.4-6.8,14.4-15.3c0-4.6-2.1-9.7-5.5-13.6C31,0.7,28,0.7,28,0.7z M27.7,14.6h-2.5c0,0,0,0,0-0.1c0-1.5-0.4-2.9-1.1-4.3h2.5
	C27.2,11.6,27.5,13.1,27.7,14.6z M26.2,9.3h-2.6c-0.9-1.5-2.3-2.6-3.6-3.4c0.6-0.4,1.2-0.8,1.9-1.3C23.6,5.8,25,7.5,26.2,9.3z
	 M16,2.8c1.9,0.1,3.5,0.6,5.1,1.5c-1.4,1.2-3.1,2-5.1,2.1V2.8z M16,7.1c1-0.1,2.1-0.3,3-0.7c1.3,0.6,2.7,1.7,3.6,2.9H16V7.1z
	 M15.1,2.8v3.6c-2.1-0.1-4-0.9-5.3-2.2C11.3,3.3,13.2,2.8,15.1,2.8z M15.1,7.1v2.3H8.3c1-1.3,2.3-2.4,3.7-2.9
	C12.9,6.8,13.9,7,15.1,7.1z M9.1,4.6c0.5,0.5,1.1,1,1.9,1.5C9.6,6.7,8.2,8,7.3,9.4H4.6C5.6,7.4,7.2,5.7,9.1,4.6z M2.9,14.9
	C3,13.2,3.4,11.7,4,10.3h2.6c-0.7,1.2-1.1,2.7-1.1,4.3c0,0.1,0,0.3,0,0.4H2.9V14.9z M9.9,15.8h2.5c0,0,0,0,0,0.1
	c0,1.5,0.4,2.9,1.1,4.3H11C10.4,18.8,10,17.3,9.9,15.8z M11.4,20.9H14c0.9,1.5,2.3,2.6,3.6,3.4c-0.6,0.4-1.2,0.8-1.9,1.3
	C14,24.6,12.5,22.9,11.4,20.9z M21.6,27.6c-1.9-0.1-3.5-0.6-5.1-1.5c1.3-1.2,3.1-2.1,5.1-2.2V27.6z M21.6,23.2c-1,0.1-2.1,0.3-3,0.7
	c-1.3-0.6-2.7-1.7-3.6-2.9h6.6V23.2z M14.3,20.1c-0.7-1.2-1.2-2.7-1.2-4.3c0,0,0,0,0-0.1l0,0v-0.9H6.4c0-0.1,0-0.3,0-0.4
	c0-1.6,0.4-3,1.2-4.3h15.6c0.7,1.2,1.2,2.7,1.2,4.3c0,0,0,0,0,0.1l0,0v0.9h6.7c0,0.1,0,0.3,0,0.4c0,1.6-0.4,3-1.2,4.3H14.3z
	 M29.3,20.9c-0.9,1.3-2.3,2.4-3.6,2.9c-0.9-0.4-2-0.6-3.1-0.7v-2.3h6.7V20.9z M22.5,27.6V24c2.1,0.1,3.9,0.9,5.3,2.2
	C26.2,27.1,24.4,27.6,22.5,27.6z M28.4,25.8c-0.5-0.5-1.1-1-1.9-1.5c1.3-0.7,2.7-2,3.6-3.4H33C31.9,23,30.3,24.7,28.4,25.8z
	 M33.4,20.1h-2.6c0.7-1.2,1.1-2.7,1.1-4.3c0-0.1,0-0.3,0-0.4h2.7C34.5,17.1,34,18.7,33.4,20.1z M76,15.1c0-7.8-6-14.8-15.7-14.8
	c-9.9,0-15.5,7.3-15.5,14.9c0,8.1,6.2,14.7,15.2,14.7C69.6,30,76,23.4,76,15.1z M49.2,15.2c0-4.9,3.3-11,11.4-11
	c7.6,0,11.2,6.1,11.2,10.9c0,2.5-1,5.6-2.9,7.7c-2,2.2-5.4,3.4-8.4,3.4C54.4,26.1,49.2,21.8,49.2,15.2z M52,44.8h1.3v-9.6H52V44.8z"
	/>
</svg>
